# xmcd CD database file
#
# Track frame offsets:
#	150
#	12934
#	36041
#	49618
#	61257
#	78442
#	90469
#	108552
#	129918
#	143815
#	158740
#	171371
#	183067
#	189318
#
# Disc length: 2673 seconds
#
# Revision: 0
# Processed by: cddbd v1.5.2PL0 Copyright (c) Steve Scherf et al.
# Submitted via: CDex 1.70beta2
#
DISCID=a70a6f0e
DTITLE=The Royal Garden Trio - The Royal Garden Trio
DYEAR=2005
DGENRE=Jazz
TTITLE0=There'll Come A Time
TTITLE1=The Viper's Dream
TTITLE2=On A Slow Boat To China
TTITLE3=Swing '02
TTITLE4=Come Sunday
TTITLE5=Undecided
TTITLE6=Spain
TTITLE7=At the Jimmie's Bar
TTITLE8=Miss Bliss
TTITLE9=Jitterbug Waltz
TTITLE10=East Of The Sun
TTITLE11=Raggin' The Scale
TTITLE12=Untitled Track 13
TTITLE13=Untitled Track 14
EXTD=YEAR: 2005
EXTT0=
EXTT1=
EXTT2=
EXTT3=
EXTT4=
EXTT5=
EXTT6=
EXTT7=
EXTT8=
EXTT9=
EXTT10=
EXTT11=
EXTT12=
EXTT13=
PLAYORDER=
